<?xml version="1.0" encoding="utf-8" standalone="no"?>
<!DOCTYPE svg PUBLIC "-//W3C//DTD SVG 1.1//EN"
  "http://www.w3.org/Graphics/SVG/1.1/DTD/svg11.dtd">
<svg xmlns:xlink="http://www.w3.org/1999/xlink" width="720pt" height="576pt" viewBox="0 0 720 576" xmlns="http://www.w3.org/2000/svg" version="1.1">
 <metadata>
  <rdf:RDF xmlns:dc="http://purl.org/dc/elements/1.1/" xmlns:cc="http://creativecommons.org/ns#" xmlns:rdf="http://www.w3.org/1999/02/22-rdf-syntax-ns#">
   <cc:Work>
    <dc:type rdf:resource="http://purl.org/dc/dcmitype/StillImage"/>
    <dc:date>2026-02-07T16:38:03.133086</dc:date>
    <dc:format>image/svg+xml</dc:format>
    <dc:creator>
     <cc:Agent>
      <dc:title>Matplotlib v3.10.7, https://matplotlib.org/</dc:title>
     </cc:Agent>
    </dc:creator>
   </cc:Work>
  </rdf:RDF>
 </metadata>
 <defs>
  <style type="text/css">*{stroke-linejoin: round; stroke-linecap: butt}</style>
 </defs>
 <g id="figure_1">
  <g id="patch_1">
   <path d="M 0 576 
L 720 576 
L 720 0 
L 0 0 
z
" style="fill: #ffffff"/>
  </g>
  <g id="axes_1">
   <g id="LineCollection_1">
    <path d="M 195.329269 263.869368 
L 480.751858 321.026352 
" clip-path="url(#pbf9c97adb2)" style="fill: none; stroke: #808080"/>
    <path d="M 195.329269 263.869368 
L 410.342032 278.851452 
" clip-path="url(#pbf9c97adb2)" style="fill: none; stroke: #808080"/>
    <path d="M 195.329269 263.869368 
L 408.693634 526.016529 
" clip-path="url(#pbf9c97adb2)" style="fill: none; stroke: #808080"/>
    <path d="M 195.329269 263.869368 
L 312.56877 462.449635 
" clip-path="url(#pbf9c97adb2)" style="fill: none; stroke: #808080"/>
    <path d="M 195.329269 263.869368 
L 289.514423 137.021092 
" clip-path="url(#pbf9c97adb2)" style="fill: none; stroke: #808080"/>
    <path d="M 195.329269 263.869368 
L 246.078437 197.777595 
" clip-path="url(#pbf9c97adb2)" style="fill: none; stroke: #808080"/>
    <path d="M 195.329269 263.869368 
L 368.32978 329.47356 
" clip-path="url(#pbf9c97adb2)" style="fill: none; stroke: #808080"/>
    <path d="M 195.329269 263.869368 
L 256.671038 314.758648 
" clip-path="url(#pbf9c97adb2)" style="fill: none; stroke: #808080"/>
    <path d="M 195.329269 263.869368 
L 448.651837 169.798533 
" clip-path="url(#pbf9c97adb2)" style="fill: none; stroke: #808080"/>
    <path d="M 195.329269 263.869368 
L 174.764417 62.572974 
" clip-path="url(#pbf9c97adb2)" style="fill: none; stroke: #808080"/>
    <path d="M 195.329269 263.869368 
L 494.94069 229.534967 
" clip-path="url(#pbf9c97adb2)" style="fill: none; stroke: #808080"/>
    <path d="M 195.329269 263.869368 
L 152.296973 340.007244 
" clip-path="url(#pbf9c97adb2)" style="fill: none; stroke: #808080"/>
    <path d="M 195.329269 263.869368 
L 91.142552 141.607486 
" clip-path="url(#pbf9c97adb2)" style="fill: none; stroke: #808080"/>
    <path d="M 195.329269 263.869368 
L 252.322435 394.975587 
" clip-path="url(#pbf9c97adb2)" style="fill: none; stroke: #808080"/>
    <path d="M 195.329269 263.869368 
L 367.811522 231.607838 
" clip-path="url(#pbf9c97adb2)" style="fill: none; stroke: #808080"/>
    <path d="M 195.329269 263.869368 
L 376.402549 150.664373 
" clip-path="url(#pbf9c97adb2)" style="fill: none; stroke: #808080"/>
    <path d="M 195.329269 263.869368 
L 374.769885 74.74596 
" clip-path="url(#pbf9c97adb2)" style="fill: none; stroke: #808080"/>
    <path d="M 195.329269 263.869368 
L 283.672325 65.883539 
" clip-path="url(#pbf9c97adb2)" style="fill: none; stroke: #808080"/>
    <path d="M 195.329269 263.869368 
L 607.535969 155.533733 
" clip-path="url(#pbf9c97adb2)" style="fill: none; stroke: #808080"/>
    <path d="M 480.751858 321.026352 
L 152.296973 340.007244 
" clip-path="url(#pbf9c97adb2)" style="fill: none; stroke: #808080"/>
    <path d="M 480.751858 321.026352 
L 376.402549 150.664373 
" clip-path="url(#pbf9c97adb2)" style="fill: none; stroke: #808080"/>
    <path d="M 480.751858 321.026352 
L 91.142552 141.607486 
" clip-path="url(#pbf9c97adb2)" style="fill: none; stroke: #808080"/>
    <path d="M 480.751858 321.026352 
L 410.342032 278.851452 
" clip-path="url(#pbf9c97adb2)" style="fill: none; stroke: #808080"/>
    <path d="M 480.751858 321.026352 
L 374.769885 74.74596 
" clip-path="url(#pbf9c97adb2)" style="fill: none; stroke: #808080"/>
    <path d="M 480.751858 321.026352 
L 607.535969 155.533733 
" clip-path="url(#pbf9c97adb2)" style="fill: none; stroke: #808080"/>
    <path d="M 480.751858 321.026352 
L 283.672325 65.883539 
" clip-path="url(#pbf9c97adb2)" style="fill: none; stroke: #808080"/>
    <path d="M 480.751858 321.026352 
L 174.764417 62.572974 
" clip-path="url(#pbf9c97adb2)" style="fill: none; stroke: #808080"/>
    <path d="M 480.751858 321.026352 
L 289.514423 137.021092 
" clip-path="url(#pbf9c97adb2)" style="fill: none; stroke: #808080"/>
    <path d="M 480.751858 321.026352 
L 246.078437 197.777595 
" clip-path="url(#pbf9c97adb2)" style="fill: none; stroke: #808080"/>
    <path d="M 480.751858 321.026352 
L 367.811522 231.607838 
" clip-path="url(#pbf9c97adb2)" style="fill: none; stroke: #808080"/>
    <path d="M 480.751858 321.026352 
L 252.322435 394.975587 
" clip-path="url(#pbf9c97adb2)" style="fill: none; stroke: #808080"/>
    <path d="M 480.751858 321.026352 
L 368.32978 329.47356 
" clip-path="url(#pbf9c97adb2)" style="fill: none; stroke: #808080"/>
    <path d="M 480.751858 321.026352 
L 647.731007 269.796628 
" clip-path="url(#pbf9c97adb2)" style="fill: none; stroke: #808080"/>
    <path d="M 480.751858 321.026352 
L 494.94069 229.534967 
" clip-path="url(#pbf9c97adb2)" style="fill: none; stroke: #808080"/>
    <path d="M 480.751858 321.026352 
L 657.520661 49.983471 
" clip-path="url(#pbf9c97adb2)" style="fill: none; stroke: #808080"/>
    <path d="M 480.751858 321.026352 
L 448.651837 169.798533 
" clip-path="url(#pbf9c97adb2)" style="fill: none; stroke: #808080"/>
    <path d="M 480.751858 321.026352 
L 312.56877 462.449635 
" clip-path="url(#pbf9c97adb2)" style="fill: none; stroke: #808080"/>
    <path d="M 376.402549 150.664373 
L 152.296973 340.007244 
" clip-path="url(#pbf9c97adb2)" style="fill: none; stroke: #808080"/>
    <path d="M 376.402549 150.664373 
L 312.56877 462.449635 
" clip-path="url(#pbf9c97adb2)" style="fill: none; stroke: #808080"/>
    <path d="M 376.402549 150.664373 
L 448.651837 169.798533 
" clip-path="url(#pbf9c97adb2)" style="fill: none; stroke: #808080"/>
    <path d="M 376.402549 150.664373 
L 174.764417 62.572974 
" clip-path="url(#pbf9c97adb2)" style="fill: none; stroke: #808080"/>
    <path d="M 376.402549 150.664373 
L 410.342032 278.851452 
" clip-path="url(#pbf9c97adb2)" style="fill: none; stroke: #808080"/>
    <path d="M 376.402549 150.664373 
L 91.142552 141.607486 
" clip-path="url(#pbf9c97adb2)" style="fill: none; stroke: #808080"/>
    <path d="M 376.402549 150.664373 
L 367.811522 231.607838 
" clip-path="url(#pbf9c97adb2)" style="fill: none; stroke: #808080"/>
    <path d="M 376.402549 150.664373 
L 246.078437 197.777595 
" clip-path="url(#pbf9c97adb2)" style="fill: none; stroke: #808080"/>
    <path d="M 376.402549 150.664373 
L 252.322435 394.975587 
" clip-path="url(#pbf9c97adb2)" style="fill: none; stroke: #808080"/>
    <path d="M 376.402549 150.664373 
L 283.672325 65.883539 
" clip-path="url(#pbf9c97adb2)" style="fill: none; stroke: #808080"/>
    <path d="M 376.402549 150.664373 
L 62.479339 245.624199 
" clip-path="url(#pbf9c97adb2)" style="fill: none; stroke: #808080"/>
    <path d="M 376.402549 150.664373 
L 374.769885 74.74596 
" clip-path="url(#pbf9c97adb2)" style="fill: none; stroke: #808080"/>
    <path d="M 376.402549 150.664373 
L 607.535969 155.533733 
" clip-path="url(#pbf9c97adb2)" style="fill: none; stroke: #808080"/>
    <path d="M 376.402549 150.664373 
L 289.514423 137.021092 
" clip-path="url(#pbf9c97adb2)" style="fill: none; stroke: #808080"/>
    <path d="M 376.402549 150.664373 
L 408.693634 526.016529 
" clip-path="url(#pbf9c97adb2)" style="fill: none; stroke: #808080"/>
    <path d="M 376.402549 150.664373 
L 368.32978 329.47356 
" clip-path="url(#pbf9c97adb2)" style="fill: none; stroke: #808080"/>
    <path d="M 376.402549 150.664373 
L 256.671038 314.758648 
" clip-path="url(#pbf9c97adb2)" style="fill: none; stroke: #808080"/>
    <path d="M 376.402549 150.664373 
L 494.94069 229.534967 
" clip-path="url(#pbf9c97adb2)" style="fill: none; stroke: #808080"/>
    <path d="M 152.296973 340.007244 
L 408.693634 526.016529 
" clip-path="url(#pbf9c97adb2)" style="fill: none; stroke: #808080"/>
    <path d="M 152.296973 340.007244 
L 252.322435 394.975587 
" clip-path="url(#pbf9c97adb2)" style="fill: none; stroke: #808080"/>
    <path d="M 152.296973 340.007244 
L 289.514423 137.021092 
" clip-path="url(#pbf9c97adb2)" style="fill: none; stroke: #808080"/>
    <path d="M 152.296973 340.007244 
L 368.32978 329.47356 
" clip-path="url(#pbf9c97adb2)" style="fill: none; stroke: #808080"/>
    <path d="M 152.296973 340.007244 
L 91.142552 141.607486 
" clip-path="url(#pbf9c97adb2)" style="fill: none; stroke: #808080"/>
    <path d="M 152.296973 340.007244 
L 410.342032 278.851452 
" clip-path="url(#pbf9c97adb2)" style="fill: none; stroke: #808080"/>
    <path d="M 152.296973 340.007244 
L 494.94069 229.534967 
" clip-path="url(#pbf9c97adb2)" style="fill: none; stroke: #808080"/>
    <path d="M 152.296973 340.007244 
L 256.671038 314.758648 
" clip-path="url(#pbf9c97adb2)" style="fill: none; stroke: #808080"/>
    <path d="M 152.296973 340.007244 
L 283.672325 65.883539 
" clip-path="url(#pbf9c97adb2)" style="fill: none; stroke: #808080"/>
    <path d="M 152.296973 340.007244 
L 448.651837 169.798533 
" clip-path="url(#pbf9c97adb2)" style="fill: none; stroke: #808080"/>
    <path d="M 152.296973 340.007244 
L 374.769885 74.74596 
" clip-path="url(#pbf9c97adb2)" style="fill: none; stroke: #808080"/>
    <path d="M 152.296973 340.007244 
L 246.078437 197.777595 
" clip-path="url(#pbf9c97adb2)" style="fill: none; stroke: #808080"/>
    <path d="M 152.296973 340.007244 
L 367.811522 231.607838 
" clip-path="url(#pbf9c97adb2)" style="fill: none; stroke: #808080"/>
    <path d="M 152.296973 340.007244 
L 174.764417 62.572974 
" clip-path="url(#pbf9c97adb2)" style="fill: none; stroke: #808080"/>
    <path d="M 152.296973 340.007244 
L 312.56877 462.449635 
" clip-path="url(#pbf9c97adb2)" style="fill: none; stroke: #808080"/>
    <path d="M 152.296973 340.007244 
L 62.479339 245.624199 
" clip-path="url(#pbf9c97adb2)" style="fill: none; stroke: #808080"/>
    <path d="M 174.764417 62.572974 
L 367.811522 231.607838 
" clip-path="url(#pbf9c97adb2)" style="fill: none; stroke: #808080"/>
    <path d="M 174.764417 62.572974 
L 410.342032 278.851452 
" clip-path="url(#pbf9c97adb2)" style="fill: none; stroke: #808080"/>
    <path d="M 174.764417 62.572974 
L 62.479339 245.624199 
" clip-path="url(#pbf9c97adb2)" style="fill: none; stroke: #808080"/>
    <path d="M 174.764417 62.572974 
L 289.514423 137.021092 
" clip-path="url(#pbf9c97adb2)" style="fill: none; stroke: #808080"/>
    <path d="M 174.764417 62.572974 
L 91.142552 141.607486 
" clip-path="url(#pbf9c97adb2)" style="fill: none; stroke: #808080"/>
    <path d="M 174.764417 62.572974 
L 374.769885 74.74596 
" clip-path="url(#pbf9c97adb2)" style="fill: none; stroke: #808080"/>
    <path d="M 174.764417 62.572974 
L 368.32978 329.47356 
" clip-path="url(#pbf9c97adb2)" style="fill: none; stroke: #808080"/>
    <path d="M 174.764417 62.572974 
L 246.078437 197.777595 
" clip-path="url(#pbf9c97adb2)" style="fill: none; stroke: #808080"/>
    <path d="M 174.764417 62.572974 
L 256.671038 314.758648 
" clip-path="url(#pbf9c97adb2)" style="fill: none; stroke: #808080"/>
    <path d="M 174.764417 62.572974 
L 448.651837 169.798533 
" clip-path="url(#pbf9c97adb2)" style="fill: none; stroke: #808080"/>
    <path d="M 174.764417 62.572974 
L 283.672325 65.883539 
" clip-path="url(#pbf9c97adb2)" style="fill: none; stroke: #808080"/>
    <path d="M 174.764417 62.572974 
L 494.94069 229.534967 
" clip-path="url(#pbf9c97adb2)" style="fill: none; stroke: #808080"/>
    <path d="M 367.811522 231.607838 
L 252.322435 394.975587 
" clip-path="url(#pbf9c97adb2)" style="fill: none; stroke: #808080"/>
    <path d="M 367.811522 231.607838 
L 312.56877 462.449635 
" clip-path="url(#pbf9c97adb2)" style="fill: none; stroke: #808080"/>
    <path d="M 367.811522 231.607838 
L 408.693634 526.016529 
" clip-path="url(#pbf9c97adb2)" style="fill: none; stroke: #808080"/>
    <path d="M 367.811522 231.607838 
L 657.520661 49.983471 
" clip-path="url(#pbf9c97adb2)" style="fill: none; stroke: #808080"/>
    <path d="M 367.811522 231.607838 
L 246.078437 197.777595 
" clip-path="url(#pbf9c97adb2)" style="fill: none; stroke: #808080"/>
    <path d="M 367.811522 231.607838 
L 410.342032 278.851452 
" clip-path="url(#pbf9c97adb2)" style="fill: none; stroke: #808080"/>
    <path d="M 367.811522 231.607838 
L 448.651837 169.798533 
" clip-path="url(#pbf9c97adb2)" style="fill: none; stroke: #808080"/>
    <path d="M 367.811522 231.607838 
L 283.672325 65.883539 
" clip-path="url(#pbf9c97adb2)" style="fill: none; stroke: #808080"/>
    <path d="M 367.811522 231.607838 
L 374.769885 74.74596 
" clip-path="url(#pbf9c97adb2)" style="fill: none; stroke: #808080"/>
    <path d="M 367.811522 231.607838 
L 494.94069 229.534967 
" clip-path="url(#pbf9c97adb2)" style="fill: none; stroke: #808080"/>
    <path d="M 367.811522 231.607838 
L 607.535969 155.533733 
" clip-path="url(#pbf9c97adb2)" style="fill: none; stroke: #808080"/>
    <path d="M 367.811522 231.607838 
L 289.514423 137.021092 
" clip-path="url(#pbf9c97adb2)" style="fill: none; stroke: #808080"/>
    <path d="M 367.811522 231.607838 
L 368.32978 329.47356 
" clip-path="url(#pbf9c97adb2)" style="fill: none; stroke: #808080"/>
    <path d="M 367.811522 231.607838 
L 256.671038 314.758648 
" clip-path="url(#pbf9c97adb2)" style="fill: none; stroke: #808080"/>
    <path d="M 312.56877 462.449635 
L 256.671038 314.758648 
" clip-path="url(#pbf9c97adb2)" style="fill: none; stroke: #808080"/>
    <path d="M 312.56877 462.449635 
L 62.479339 245.624199 
" clip-path="url(#pbf9c97adb2)" style="fill: none; stroke: #808080"/>
    <path d="M 312.56877 462.449635 
L 410.342032 278.851452 
" clip-path="url(#pbf9c97adb2)" style="fill: none; stroke: #808080"/>
    <path d="M 312.56877 462.449635 
L 252.322435 394.975587 
" clip-path="url(#pbf9c97adb2)" style="fill: none; stroke: #808080"/>
    <path d="M 312.56877 462.449635 
L 368.32978 329.47356 
" clip-path="url(#pbf9c97adb2)" style="fill: none; stroke: #808080"/>
    <path d="M 312.56877 462.449635 
L 246.078437 197.777595 
" clip-path="url(#pbf9c97adb2)" style="fill: none; stroke: #808080"/>
    <path d="M 312.56877 462.449635 
L 448.651837 169.798533 
" clip-path="url(#pbf9c97adb2)" style="fill: none; stroke: #808080"/>
    <path d="M 312.56877 462.449635 
L 408.693634 526.016529 
" clip-path="url(#pbf9c97adb2)" style="fill: none; stroke: #808080"/>
    <path d="M 312.56877 462.449635 
L 374.769885 74.74596 
" clip-path="url(#pbf9c97adb2)" style="fill: none; stroke: #808080"/>
    <path d="M 312.56877 462.449635 
L 494.94069 229.534967 
" clip-path="url(#pbf9c97adb2)" style="fill: none; stroke: #808080"/>
    <path d="M 256.671038 314.758648 
L 368.32978 329.47356 
" clip-path="url(#pbf9c97adb2)" style="fill: none; stroke: #808080"/>
    <path d="M 256.671038 314.758648 
L 246.078437 197.777595 
" clip-path="url(#pbf9c97adb2)" style="fill: none; stroke: #808080"/>
    <path d="M 256.671038 314.758648 
L 448.651837 169.798533 
" clip-path="url(#pbf9c97adb2)" style="fill: none; stroke: #808080"/>
    <path d="M 256.671038 314.758648 
L 62.479339 245.624199 
" clip-path="url(#pbf9c97adb2)" style="fill: none; stroke: #808080"/>
    <path d="M 256.671038 314.758648 
L 91.142552 141.607486 
" clip-path="url(#pbf9c97adb2)" style="fill: none; stroke: #808080"/>
    <path d="M 256.671038 314.758648 
L 410.342032 278.851452 
" clip-path="url(#pbf9c97adb2)" style="fill: none; stroke: #808080"/>
    <path d="M 256.671038 314.758648 
L 494.94069 229.534967 
" clip-path="url(#pbf9c97adb2)" style="fill: none; stroke: #808080"/>
    <path d="M 256.671038 314.758648 
L 607.535969 155.533733 
" clip-path="url(#pbf9c97adb2)" style="fill: none; stroke: #808080"/>
    <path d="M 256.671038 314.758648 
L 289.514423 137.021092 
" clip-path="url(#pbf9c97adb2)" style="fill: none; stroke: #808080"/>
    <path d="M 256.671038 314.758648 
L 252.322435 394.975587 
" clip-path="url(#pbf9c97adb2)" style="fill: none; stroke: #808080"/>
    <path d="M 256.671038 314.758648 
L 408.693634 526.016529 
" clip-path="url(#pbf9c97adb2)" style="fill: none; stroke: #808080"/>
    <path d="M 256.671038 314.758648 
L 374.769885 74.74596 
" clip-path="url(#pbf9c97adb2)" style="fill: none; stroke: #808080"/>
    <path d="M 256.671038 314.758648 
L 283.672325 65.883539 
" clip-path="url(#pbf9c97adb2)" style="fill: none; stroke: #808080"/>
    <path d="M 252.322435 394.975587 
L 647.731007 269.796628 
" clip-path="url(#pbf9c97adb2)" style="fill: none; stroke: #808080"/>
    <path d="M 252.322435 394.975587 
L 62.479339 245.624199 
" clip-path="url(#pbf9c97adb2)" style="fill: none; stroke: #808080"/>
    <path d="M 252.322435 394.975587 
L 374.769885 74.74596 
" clip-path="url(#pbf9c97adb2)" style="fill: none; stroke: #808080"/>
    <path d="M 252.322435 394.975587 
L 283.672325 65.883539 
" clip-path="url(#pbf9c97adb2)" style="fill: none; stroke: #808080"/>
    <path d="M 252.322435 394.975587 
L 91.142552 141.607486 
" clip-path="url(#pbf9c97adb2)" style="fill: none; stroke: #808080"/>
    <path d="M 252.322435 394.975587 
L 410.342032 278.851452 
" clip-path="url(#pbf9c97adb2)" style="fill: none; stroke: #808080"/>
    <path d="M 252.322435 394.975587 
L 408.693634 526.016529 
" clip-path="url(#pbf9c97adb2)" style="fill: none; stroke: #808080"/>
    <path d="M 252.322435 394.975587 
L 289.514423 137.021092 
" clip-path="url(#pbf9c97adb2)" style="fill: none; stroke: #808080"/>
    <path d="M 252.322435 394.975587 
L 368.32978 329.47356 
" clip-path="url(#pbf9c97adb2)" style="fill: none; stroke: #808080"/>
    <path d="M 252.322435 394.975587 
L 246.078437 197.777595 
" clip-path="url(#pbf9c97adb2)" style="fill: none; stroke: #808080"/>
    <path d="M 252.322435 394.975587 
L 448.651837 169.798533 
" clip-path="url(#pbf9c97adb2)" style="fill: none; stroke: #808080"/>
    <path d="M 410.342032 278.851452 
L 494.94069 229.534967 
" clip-path="url(#pbf9c97adb2)" style="fill: none; stroke: #808080"/>
    <path d="M 410.342032 278.851452 
L 657.520661 49.983471 
" clip-path="url(#pbf9c97adb2)" style="fill: none; stroke: #808080"/>
    <path d="M 410.342032 278.851452 
L 289.514423 137.021092 
" clip-path="url(#pbf9c97adb2)" style="fill: none; stroke: #808080"/>
    <path d="M 410.342032 278.851452 
L 448.651837 169.798533 
" clip-path="url(#pbf9c97adb2)" style="fill: none; stroke: #808080"/>
    <path d="M 410.342032 278.851452 
L 91.142552 141.607486 
" clip-path="url(#pbf9c97adb2)" style="fill: none; stroke: #808080"/>
    <path d="M 410.342032 278.851452 
L 408.693634 526.016529 
" clip-path="url(#pbf9c97adb2)" style="fill: none; stroke: #808080"/>
    <path d="M 410.342032 278.851452 
L 647.731007 269.796628 
" clip-path="url(#pbf9c97adb2)" style="fill: none; stroke: #808080"/>
    <path d="M 410.342032 278.851452 
L 374.769885 74.74596 
" clip-path="url(#pbf9c97adb2)" style="fill: none; stroke: #808080"/>
    <path d="M 410.342032 278.851452 
L 283.672325 65.883539 
" clip-path="url(#pbf9c97adb2)" style="fill: none; stroke: #808080"/>
    <path d="M 410.342032 278.851452 
L 607.535969 155.533733 
" clip-path="url(#pbf9c97adb2)" style="fill: none; stroke: #808080"/>
    <path d="M 410.342032 278.851452 
L 62.479339 245.624199 
" clip-path="url(#pbf9c97adb2)" style="fill: none; stroke: #808080"/>
    <path d="M 410.342032 278.851452 
L 368.32978 329.47356 
" clip-path="url(#pbf9c97adb2)" style="fill: none; stroke: #808080"/>
    <path d="M 410.342032 278.851452 
L 246.078437 197.777595 
" clip-path="url(#pbf9c97adb2)" style="fill: none; stroke: #808080"/>
    <path d="M 494.94069 229.534967 
L 448.651837 169.798533 
" clip-path="url(#pbf9c97adb2)" style="fill: none; stroke: #808080"/>
    <path d="M 494.94069 229.534967 
L 657.520661 49.983471 
" clip-path="url(#pbf9c97adb2)" style="fill: none; stroke: #808080"/>
    <path d="M 494.94069 229.534967 
L 289.514423 137.021092 
" clip-path="url(#pbf9c97adb2)" style="fill: none; stroke: #808080"/>
    <path d="M 494.94069 229.534967 
L 368.32978 329.47356 
" clip-path="url(#pbf9c97adb2)" style="fill: none; stroke: #808080"/>
    <path d="M 494.94069 229.534967 
L 62.479339 245.624199 
" clip-path="url(#pbf9c97adb2)" style="fill: none; stroke: #808080"/>
    <path d="M 494.94069 229.534967 
L 374.769885 74.74596 
" clip-path="url(#pbf9c97adb2)" style="fill: none; stroke: #808080"/>
    <path d="M 494.94069 229.534967 
L 283.672325 65.883539 
" clip-path="url(#pbf9c97adb2)" style="fill: none; stroke: #808080"/>
    <path d="M 494.94069 229.534967 
L 246.078437 197.777595 
" clip-path="url(#pbf9c97adb2)" style="fill: none; stroke: #808080"/>
    <path d="M 448.651837 169.798533 
L 607.535969 155.533733 
" clip-path="url(#pbf9c97adb2)" style="fill: none; stroke: #808080"/>
    <path d="M 448.651837 169.798533 
L 289.514423 137.021092 
" clip-path="url(#pbf9c97adb2)" style="fill: none; stroke: #808080"/>
    <path d="M 448.651837 169.798533 
L 246.078437 197.777595 
" clip-path="url(#pbf9c97adb2)" style="fill: none; stroke: #808080"/>
    <path d="M 448.651837 169.798533 
L 368.32978 329.47356 
" clip-path="url(#pbf9c97adb2)" style="fill: none; stroke: #808080"/>
    <path d="M 448.651837 169.798533 
L 374.769885 74.74596 
" clip-path="url(#pbf9c97adb2)" style="fill: none; stroke: #808080"/>
    <path d="M 448.651837 169.798533 
L 283.672325 65.883539 
" clip-path="url(#pbf9c97adb2)" style="fill: none; stroke: #808080"/>
    <path d="M 448.651837 169.798533 
L 408.693634 526.016529 
" clip-path="url(#pbf9c97adb2)" style="fill: none; stroke: #808080"/>
    <path d="M 448.651837 169.798533 
L 91.142552 141.607486 
" clip-path="url(#pbf9c97adb2)" style="fill: none; stroke: #808080"/>
    <path d="M 408.693634 526.016529 
L 368.32978 329.47356 
" clip-path="url(#pbf9c97adb2)" style="fill: none; stroke: #808080"/>
    <path d="M 607.535969 155.533733 
L 289.514423 137.021092 
" clip-path="url(#pbf9c97adb2)" style="fill: none; stroke: #808080"/>
    <path d="M 607.535969 155.533733 
L 647.731007 269.796628 
" clip-path="url(#pbf9c97adb2)" style="fill: none; stroke: #808080"/>
    <path d="M 607.535969 155.533733 
L 368.32978 329.47356 
" clip-path="url(#pbf9c97adb2)" style="fill: none; stroke: #808080"/>
    <path d="M 607.535969 155.533733 
L 657.520661 49.983471 
" clip-path="url(#pbf9c97adb2)" style="fill: none; stroke: #808080"/>
    <path d="M 607.535969 155.533733 
L 246.078437 197.777595 
" clip-path="url(#pbf9c97adb2)" style="fill: none; stroke: #808080"/>
    <path d="M 368.32978 329.47356 
L 289.514423 137.021092 
" clip-path="url(#pbf9c97adb2)" style="fill: none; stroke: #808080"/>
    <path d="M 368.32978 329.47356 
L 246.078437 197.777595 
" clip-path="url(#pbf9c97adb2)" style="fill: none; stroke: #808080"/>
    <path d="M 368.32978 329.47356 
L 647.731007 269.796628 
" clip-path="url(#pbf9c97adb2)" style="fill: none; stroke: #808080"/>
    <path d="M 368.32978 329.47356 
L 374.769885 74.74596 
" clip-path="url(#pbf9c97adb2)" style="fill: none; stroke: #808080"/>
    <path d="M 368.32978 329.47356 
L 657.520661 49.983471 
" clip-path="url(#pbf9c97adb2)" style="fill: none; stroke: #808080"/>
    <path d="M 368.32978 329.47356 
L 91.142552 141.607486 
" clip-path="url(#pbf9c97adb2)" style="fill: none; stroke: #808080"/>
    <path d="M 368.32978 329.47356 
L 62.479339 245.624199 
" clip-path="url(#pbf9c97adb2)" style="fill: none; stroke: #808080"/>
    <path d="M 368.32978 329.47356 
L 283.672325 65.883539 
" clip-path="url(#pbf9c97adb2)" style="fill: none; stroke: #808080"/>
    <path d="M 289.514423 137.021092 
L 246.078437 197.777595 
" clip-path="url(#pbf9c97adb2)" style="fill: none; stroke: #808080"/>
    <path d="M 289.514423 137.021092 
L 62.479339 245.624199 
" clip-path="url(#pbf9c97adb2)" style="fill: none; stroke: #808080"/>
    <path d="M 289.514423 137.021092 
L 91.142552 141.607486 
" clip-path="url(#pbf9c97adb2)" style="fill: none; stroke: #808080"/>
    <path d="M 289.514423 137.021092 
L 647.731007 269.796628 
" clip-path="url(#pbf9c97adb2)" style="fill: none; stroke: #808080"/>
    <path d="M 289.514423 137.021092 
L 374.769885 74.74596 
" clip-path="url(#pbf9c97adb2)" style="fill: none; stroke: #808080"/>
    <path d="M 289.514423 137.021092 
L 283.672325 65.883539 
" clip-path="url(#pbf9c97adb2)" style="fill: none; stroke: #808080"/>
    <path d="M 246.078437 197.777595 
L 283.672325 65.883539 
" clip-path="url(#pbf9c97adb2)" style="fill: none; stroke: #808080"/>
    <path d="M 246.078437 197.777595 
L 62.479339 245.624199 
" clip-path="url(#pbf9c97adb2)" style="fill: none; stroke: #808080"/>
    <path d="M 246.078437 197.777595 
L 647.731007 269.796628 
" clip-path="url(#pbf9c97adb2)" style="fill: none; stroke: #808080"/>
    <path d="M 246.078437 197.777595 
L 374.769885 74.74596 
" clip-path="url(#pbf9c97adb2)" style="fill: none; stroke: #808080"/>
    <path d="M 657.520661 49.983471 
L 283.672325 65.883539 
" clip-path="url(#pbf9c97adb2)" style="fill: none; stroke: #808080"/>
    <path d="M 657.520661 49.983471 
L 647.731007 269.796628 
" clip-path="url(#pbf9c97adb2)" style="fill: none; stroke: #808080"/>
    <path d="M 657.520661 49.983471 
L 374.769885 74.74596 
" clip-path="url(#pbf9c97adb2)" style="fill: none; stroke: #808080"/>
    <path d="M 91.142552 141.607486 
L 62.479339 245.624199 
" clip-path="url(#pbf9c97adb2)" style="fill: none; stroke: #808080"/>
    <path d="M 91.142552 141.607486 
L 374.769885 74.74596 
" clip-path="url(#pbf9c97adb2)" style="fill: none; stroke: #808080"/>
    <path d="M 91.142552 141.607486 
L 283.672325 65.883539 
" clip-path="url(#pbf9c97adb2)" style="fill: none; stroke: #808080"/>
    <path d="M 62.479339 245.624199 
L 283.672325 65.883539 
" clip-path="url(#pbf9c97adb2)" style="fill: none; stroke: #808080"/>
    <path d="M 62.479339 245.624199 
L 374.769885 74.74596 
" clip-path="url(#pbf9c97adb2)" style="fill: none; stroke: #808080"/>
    <path d="M 647.731007 269.796628 
L 374.769885 74.74596 
" clip-path="url(#pbf9c97adb2)" style="fill: none; stroke: #808080"/>
    <path d="M 647.731007 269.796628 
L 283.672325 65.883539 
" clip-path="url(#pbf9c97adb2)" style="fill: none; stroke: #808080"/>
    <path d="M 374.769885 74.74596 
L 283.672325 65.883539 
" clip-path="url(#pbf9c97adb2)" style="fill: none; stroke: #808080"/>
   </g>
   <g id="PathCollection_1">
    <defs>
     <path id="m1a99c2a99e" d="M 0 14.142136 
C 3.750538 14.142136 7.347969 12.652031 10 10 
C 12.652031 7.347969 14.142136 3.750538 14.142136 0 
C 14.142136 -3.750538 12.652031 -7.347969 10 -10 
C 7.347969 -12.652031 3.750538 -14.142136 0 -14.142136 
C -3.750538 -14.142136 -7.347969 -12.652031 -10 -10 
C -12.652031 -7.347969 -14.142136 -3.750538 -14.142136 0 
C -14.142136 3.750538 -12.652031 7.347969 -10 10 
C -7.347969 12.652031 -3.750538 14.142136 0 14.142136 
z
" style="stroke: #add8e6"/>
    </defs>
    <g clip-path="url(#pbf9c97adb2)">
     <use xlink:href="#m1a99c2a99e" x="195.329269" y="263.869368" style="fill: #add8e6; stroke: #add8e6"/>
     <use xlink:href="#m1a99c2a99e" x="480.751858" y="321.026352" style="fill: #add8e6; stroke: #add8e6"/>
     <use xlink:href="#m1a99c2a99e" x="376.402549" y="150.664373" style="fill: #add8e6; stroke: #add8e6"/>
     <use xlink:href="#m1a99c2a99e" x="152.296973" y="340.007244" style="fill: #add8e6; stroke: #add8e6"/>
     <use xlink:href="#m1a99c2a99e" x="174.764417" y="62.572974" style="fill: #add8e6; stroke: #add8e6"/>
     <use xlink:href="#m1a99c2a99e" x="367.811522" y="231.607838" style="fill: #add8e6; stroke: #add8e6"/>
     <use xlink:href="#m1a99c2a99e" x="312.56877" y="462.449635" style="fill: #add8e6; stroke: #add8e6"/>
     <use xlink:href="#m1a99c2a99e" x="256.671038" y="314.758648" style="fill: #add8e6; stroke: #add8e6"/>
     <use xlink:href="#m1a99c2a99e" x="252.322435" y="394.975587" style="fill: #add8e6; stroke: #add8e6"/>
     <use xlink:href="#m1a99c2a99e" x="410.342032" y="278.851452" style="fill: #add8e6; stroke: #add8e6"/>
     <use xlink:href="#m1a99c2a99e" x="494.94069" y="229.534967" style="fill: #add8e6; stroke: #add8e6"/>
     <use xlink:href="#m1a99c2a99e" x="448.651837" y="169.798533" style="fill: #add8e6; stroke: #add8e6"/>
     <use xlink:href="#m1a99c2a99e" x="408.693634" y="526.016529" style="fill: #add8e6; stroke: #add8e6"/>
     <use xlink:href="#m1a99c2a99e" x="607.535969" y="155.533733" style="fill: #add8e6; stroke: #add8e6"/>
     <use xlink:href="#m1a99c2a99e" x="368.32978" y="329.47356" style="fill: #add8e6; stroke: #add8e6"/>
     <use xlink:href="#m1a99c2a99e" x="289.514423" y="137.021092" style="fill: #add8e6; stroke: #add8e6"/>
     <use xlink:href="#m1a99c2a99e" x="246.078437" y="197.777595" style="fill: #add8e6; stroke: #add8e6"/>
     <use xlink:href="#m1a99c2a99e" x="657.520661" y="49.983471" style="fill: #add8e6; stroke: #add8e6"/>
     <use xlink:href="#m1a99c2a99e" x="91.142552" y="141.607486" style="fill: #add8e6; stroke: #add8e6"/>
     <use xlink:href="#m1a99c2a99e" x="62.479339" y="245.624199" style="fill: #add8e6; stroke: #add8e6"/>
     <use xlink:href="#m1a99c2a99e" x="647.731007" y="269.796628" style="fill: #add8e6; stroke: #add8e6"/>
     <use xlink:href="#m1a99c2a99e" x="374.769885" y="74.74596" style="fill: #add8e6; stroke: #add8e6"/>
     <use xlink:href="#m1a99c2a99e" x="283.672325" y="65.883539" style="fill: #add8e6; stroke: #add8e6"/>
    </g>
   </g>
   <g id="text_1">
    <g clip-path="url(#pbf9c97adb2)">
     <!-- YOR174W -->
     <g transform="translate(173.120363 266.352805) scale(0.09 -0.09)">
      <defs>
       <path id="DejaVuSans-59" d="M -13 4666 
L 666 4666 
L 1959 2747 
L 3244 4666 
L 3922 4666 
L 2272 2222 
L 2272 0 
L 1638 0 
L 1638 2222 
L -13 4666 
z
" transform="scale(0.015625)"/>
       <path id="DejaVuSans-4f" d="M 2522 4238 
Q 1834 4238 1429 3725 
Q 1025 3213 1025 2328 
Q 1025 1447 1429 934 
Q 1834 422 2522 422 
Q 3209 422 3611 934 
Q 4013 1447 4013 2328 
Q 4013 3213 3611 3725 
Q 3209 4238 2522 4238 
z
M 2522 4750 
Q 3503 4750 4090 4092 
Q 4678 3434 4678 2328 
Q 4678 1225 4090 567 
Q 3503 -91 2522 -91 
Q 1538 -91 948 565 
Q 359 1222 359 2328 
Q 359 3434 948 4092 
Q 1538 4750 2522 4750 
z
" transform="scale(0.015625)"/>
       <path id="DejaVuSans-52" d="M 2841 2188 
Q 3044 2119 3236 1894 
Q 3428 1669 3622 1275 
L 4263 0 
L 3584 0 
L 2988 1197 
Q 2756 1666 2539 1819 
Q 2322 1972 1947 1972 
L 1259 1972 
L 1259 0 
L 628 0 
L 628 4666 
L 2053 4666 
Q 2853 4666 3247 4331 
Q 3641 3997 3641 3322 
Q 3641 2881 3436 2590 
Q 3231 2300 2841 2188 
z
M 1259 4147 
L 1259 2491 
L 2053 2491 
Q 2509 2491 2742 2702 
Q 2975 2913 2975 3322 
Q 2975 3731 2742 3939 
Q 2509 4147 2053 4147 
L 1259 4147 
z
" transform="scale(0.015625)"/>
       <path id="DejaVuSans-31" d="M 794 531 
L 1825 531 
L 1825 4091 
L 703 3866 
L 703 4441 
L 1819 4666 
L 2450 4666 
L 2450 531 
L 3481 531 
L 3481 0 
L 794 0 
L 794 531 
z
" transform="scale(0.015625)"/>
       <path id="DejaVuSans-37" d="M 525 4666 
L 3525 4666 
L 3525 4397 
L 1831 0 
L 1172 0 
L 2766 4134 
L 525 4134 
L 525 4666 
z
" transform="scale(0.015625)"/>
       <path id="DejaVuSans-34" d="M 2419 4116 
L 825 1625 
L 2419 1625 
L 2419 4116 
z
M 2253 4666 
L 3047 4666 
L 3047 1625 
L 3713 1625 
L 3713 1100 
L 3047 1100 
L 3047 0 
L 2419 0 
L 2419 1100 
L 313 1100 
L 313 1709 
L 2253 4666 
z
" transform="scale(0.015625)"/>
       <path id="DejaVuSans-57" d="M 213 4666 
L 850 4666 
L 1831 722 
L 2809 4666 
L 3519 4666 
L 4500 722 
L 5478 4666 
L 6119 4666 
L 4947 0 
L 4153 0 
L 3169 4050 
L 2175 0 
L 1381 0 
L 213 4666 
z
" transform="scale(0.015625)"/>
      </defs>
      <use xlink:href="#DejaVuSans-59"/>
      <use xlink:href="#DejaVuSans-4f" transform="translate(55.583984 0)"/>
      <use xlink:href="#DejaVuSans-52" transform="translate(134.294922 0)"/>
      <use xlink:href="#DejaVuSans-31" transform="translate(203.777344 0)"/>
      <use xlink:href="#DejaVuSans-37" transform="translate(267.400391 0)"/>
      <use xlink:href="#DejaVuSans-34" transform="translate(331.023438 0)"/>
      <use xlink:href="#DejaVuSans-57" transform="translate(394.646484 0)"/>
     </g>
    </g>
   </g>
   <g id="text_2">
    <g clip-path="url(#pbf9c97adb2)">
     <!-- YNL236W -->
     <g transform="translate(459.090686 323.50979) scale(0.09 -0.09)">
      <defs>
       <path id="DejaVuSans-4e" d="M 628 4666 
L 1478 4666 
L 3547 763 
L 3547 4666 
L 4159 4666 
L 4159 0 
L 3309 0 
L 1241 3903 
L 1241 0 
L 628 0 
L 628 4666 
z
" transform="scale(0.015625)"/>
       <path id="DejaVuSans-4c" d="M 628 4666 
L 1259 4666 
L 1259 531 
L 3531 531 
L 3531 0 
L 628 0 
L 628 4666 
z
" transform="scale(0.015625)"/>
       <path id="DejaVuSans-32" d="M 1228 531 
L 3431 531 
L 3431 0 
L 469 0 
L 469 531 
Q 828 903 1448 1529 
Q 2069 2156 2228 2338 
Q 2531 2678 2651 2914 
Q 2772 3150 2772 3378 
Q 2772 3750 2511 3984 
Q 2250 4219 1831 4219 
Q 1534 4219 1204 4116 
Q 875 4013 500 3803 
L 500 4441 
Q 881 4594 1212 4672 
Q 1544 4750 1819 4750 
Q 2544 4750 2975 4387 
Q 3406 4025 3406 3419 
Q 3406 3131 3298 2873 
Q 3191 2616 2906 2266 
Q 2828 2175 2409 1742 
Q 1991 1309 1228 531 
z
" transform="scale(0.015625)"/>
       <path id="DejaVuSans-33" d="M 2597 2516 
Q 3050 2419 3304 2112 
Q 3559 1806 3559 1356 
Q 3559 666 3084 287 
Q 2609 -91 1734 -91 
Q 1441 -91 1130 -33 
Q 819 25 488 141 
L 488 750 
Q 750 597 1062 519 
Q 1375 441 1716 441 
Q 2309 441 2620 675 
Q 2931 909 2931 1356 
Q 2931 1769 2642 2001 
Q 2353 2234 1838 2234 
L 1294 2234 
L 1294 2753 
L 1863 2753 
Q 2328 2753 2575 2939 
Q 2822 3125 2822 3475 
Q 2822 3834 2567 4026 
Q 2313 4219 1838 4219 
Q 1578 4219 1281 4162 
Q 984 4106 628 3988 
L 628 4550 
Q 988 4650 1302 4700 
Q 1616 4750 1894 4750 
Q 2613 4750 3031 4423 
Q 3450 4097 3450 3541 
Q 3450 3153 3228 2886 
Q 3006 2619 2597 2516 
z
" transform="scale(0.015625)"/>
       <path id="DejaVuSans-36" d="M 2113 2584 
Q 1688 2584 1439 2293 
Q 1191 2003 1191 1497 
Q 1191 994 1439 701 
Q 1688 409 2113 409 
Q 2538 409 2786 701 
Q 3034 994 3034 1497 
Q 3034 2003 2786 2293 
Q 2538 2584 2113 2584 
z
M 3366 4563 
L 3366 3988 
Q 3128 4100 2886 4159 
Q 2644 4219 2406 4219 
Q 1781 4219 1451 3797 
Q 1122 3375 1075 2522 
Q 1259 2794 1537 2939 
Q 1816 3084 2150 3084 
Q 2853 3084 3261 2657 
Q 3669 2231 3669 1497 
Q 3669 778 3244 343 
Q 2819 -91 2113 -91 
Q 1303 -91 875 529 
Q 447 1150 447 2328 
Q 447 3434 972 4092 
Q 1497 4750 2381 4750 
Q 2619 4750 2861 4703 
Q 3103 4656 3366 4563 
z
" transform="scale(0.015625)"/>
      </defs>
      <use xlink:href="#DejaVuSans-59"/>
      <use xlink:href="#DejaVuSans-4e" transform="translate(61.083984 0)"/>
      <use xlink:href="#DejaVuSans-4c" transform="translate(135.888672 0)"/>
      <use xlink:href="#DejaVuSans-32" transform="translate(191.601562 0)"/>
      <use xlink:href="#DejaVuSans-33" transform="translate(255.224609 0)"/>
      <use xlink:href="#DejaVuSans-36" transform="translate(318.847656 0)"/>
      <use xlink:href="#DejaVuSans-57" transform="translate(382.470703 0)"/>
     </g>
    </g>
   </g>
   <g id="text_3">
    <g clip-path="url(#pbf9c97adb2)">
     <!-- YBR193C -->
     <g transform="translate(355.708174 153.14781) scale(0.09 -0.09)">
      <defs>
       <path id="DejaVuSans-42" d="M 1259 2228 
L 1259 519 
L 2272 519 
Q 2781 519 3026 730 
Q 3272 941 3272 1375 
Q 3272 1813 3026 2020 
Q 2781 2228 2272 2228 
L 1259 2228 
z
M 1259 4147 
L 1259 2741 
L 2194 2741 
Q 2656 2741 2882 2914 
Q 3109 3088 3109 3444 
Q 3109 3797 2882 3972 
Q 2656 4147 2194 4147 
L 1259 4147 
z
M 628 4666 
L 2241 4666 
Q 2963 4666 3353 4366 
Q 3744 4066 3744 3513 
Q 3744 3084 3544 2831 
Q 3344 2578 2956 2516 
Q 3422 2416 3680 2098 
Q 3938 1781 3938 1306 
Q 3938 681 3513 340 
Q 3088 0 2303 0 
L 628 0 
L 628 4666 
z
" transform="scale(0.015625)"/>
       <path id="DejaVuSans-39" d="M 703 97 
L 703 672 
Q 941 559 1184 500 
Q 1428 441 1663 441 
Q 2288 441 2617 861 
Q 2947 1281 2994 2138 
Q 2813 1869 2534 1725 
Q 2256 1581 1919 1581 
Q 1219 1581 811 2004 
Q 403 2428 403 3163 
Q 403 3881 828 4315 
Q 1253 4750 1959 4750 
Q 2769 4750 3195 4129 
Q 3622 3509 3622 2328 
Q 3622 1225 3098 567 
Q 2575 -91 1691 -91 
Q 1453 -91 1209 -44 
Q 966 3 703 97 
z
M 1959 2075 
Q 2384 2075 2632 2365 
Q 2881 2656 2881 3163 
Q 2881 3666 2632 3958 
Q 2384 4250 1959 4250 
Q 1534 4250 1286 3958 
Q 1038 3666 1038 3163 
Q 1038 2656 1286 2365 
Q 1534 2075 1959 2075 
z
" transform="scale(0.015625)"/>
       <path id="DejaVuSans-43" d="M 4122 4306 
L 4122 3641 
Q 3803 3938 3442 4084 
Q 3081 4231 2675 4231 
Q 1875 4231 1450 3742 
Q 1025 3253 1025 2328 
Q 1025 1406 1450 917 
Q 1875 428 2675 428 
Q 3081 428 3442 575 
Q 3803 722 4122 1019 
L 4122 359 
Q 3791 134 3420 21 
Q 3050 -91 2638 -91 
Q 1578 -91 968 557 
Q 359 1206 359 2328 
Q 359 3453 968 4101 
Q 1578 4750 2638 4750 
Q 3056 4750 3426 4639 
Q 3797 4528 4122 4306 
z
" transform="scale(0.015625)"/>
      </defs>
      <use xlink:href="#DejaVuSans-59"/>
      <use xlink:href="#DejaVuSans-42" transform="translate(61.083984 0)"/>
      <use xlink:href="#DejaVuSans-52" transform="translate(129.6875 0)"/>
      <use xlink:href="#DejaVuSans-31" transform="translate(199.169922 0)"/>
      <use xlink:href="#DejaVuSans-39" transform="translate(262.792969 0)"/>
      <use xlink:href="#DejaVuSans-33" transform="translate(326.416016 0)"/>
      <use xlink:href="#DejaVuSans-43" transform="translate(390.039062 0)"/>
     </g>
    </g>
   </g>
   <g id="text_4">
    <g clip-path="url(#pbf9c97adb2)">
     <!-- YHR041C -->
     <g transform="translate(131.305879 342.490682) scale(0.09 -0.09)">
      <defs>
       <path id="DejaVuSans-48" d="M 628 4666 
L 1259 4666 
L 1259 2753 
L 3553 2753 
L 3553 4666 
L 4184 4666 
L 4184 0 
L 3553 0 
L 3553 2222 
L 1259 2222 
L 1259 0 
L 628 0 
L 628 4666 
z
" transform="scale(0.015625)"/>
       <path id="DejaVuSans-30" d="M 2034 4250 
Q 1547 4250 1301 3770 
Q 1056 3291 1056 2328 
Q 1056 1369 1301 889 
Q 1547 409 2034 409 
Q 2525 409 2770 889 
Q 3016 1369 3016 2328 
Q 3016 3291 2770 3770 
Q 2525 4250 2034 4250 
z
M 2034 4750 
Q 2819 4750 3233 4129 
Q 3647 3509 3647 2328 
Q 3647 1150 3233 529 
Q 2819 -91 2034 -91 
Q 1250 -91 836 529 
Q 422 1150 422 2328 
Q 422 3509 836 4129 
Q 1250 4750 2034 4750 
z
" transform="scale(0.015625)"/>
      </defs>
      <use xlink:href="#DejaVuSans-59"/>
      <use xlink:href="#DejaVuSans-48" transform="translate(61.083984 0)"/>
      <use xlink:href="#DejaVuSans-52" transform="translate(136.279297 0)"/>
      <use xlink:href="#DejaVuSans-30" transform="translate(205.761719 0)"/>
      <use xlink:href="#DejaVuSans-34" transform="translate(269.384766 0)"/>
      <use xlink:href="#DejaVuSans-31" transform="translate(333.007812 0)"/>
      <use xlink:href="#DejaVuSans-43" transform="translate(396.630859 0)"/>
     </g>
    </g>
   </g>
   <g id="text_5">
    <g clip-path="url(#pbf9c97adb2)">
     <!-- YBR253W -->
     <g transform="translate(152.762933 65.056411) scale(0.09 -0.09)">
      <defs>
       <path id="DejaVuSans-35" d="M 691 4666 
L 3169 4666 
L 3169 4134 
L 1269 4134 
L 1269 2991 
Q 1406 3038 1543 3061 
Q 1681 3084 1819 3084 
Q 2600 3084 3056 2656 
Q 3513 2228 3513 1497 
Q 3513 744 3044 326 
Q 2575 -91 1722 -91 
Q 1428 -91 1123 -41 
Q 819 9 494 109 
L 494 744 
Q 775 591 1075 516 
Q 1375 441 1709 441 
Q 2250 441 2565 725 
Q 2881 1009 2881 1497 
Q 2881 1984 2565 2268 
Q 2250 2553 1709 2553 
Q 1456 2553 1204 2497 
Q 953 2441 691 2322 
L 691 4666 
z
" transform="scale(0.015625)"/>
      </defs>
      <use xlink:href="#DejaVuSans-59"/>
      <use xlink:href="#DejaVuSans-42" transform="translate(61.083984 0)"/>
      <use xlink:href="#DejaVuSans-52" transform="translate(129.6875 0)"/>
      <use xlink:href="#DejaVuSans-32" transform="translate(199.169922 0)"/>
      <use xlink:href="#DejaVuSans-35" transform="translate(262.792969 0)"/>
      <use xlink:href="#DejaVuSans-33" transform="translate(326.416016 0)"/>
      <use xlink:href="#DejaVuSans-57" transform="translate(390.039062 0)"/>
     </g>
    </g>
   </g>
   <g id="text_6">
    <g clip-path="url(#pbf9c97adb2)">
     <!-- YGL025C -->
     <g transform="translate(347.337226 234.091276) scale(0.09 -0.09)">
      <defs>
       <path id="DejaVuSans-47" d="M 3809 666 
L 3809 1919 
L 2778 1919 
L 2778 2438 
L 4434 2438 
L 4434 434 
Q 4069 175 3628 42 
Q 3188 -91 2688 -91 
Q 1594 -91 976 548 
Q 359 1188 359 2328 
Q 359 3472 976 4111 
Q 1594 4750 2688 4750 
Q 3144 4750 3555 4637 
Q 3966 4525 4313 4306 
L 4313 3634 
Q 3963 3931 3569 4081 
Q 3175 4231 2741 4231 
Q 1884 4231 1454 3753 
Q 1025 3275 1025 2328 
Q 1025 1384 1454 906 
Q 1884 428 2741 428 
Q 3075 428 3337 486 
Q 3600 544 3809 666 
z
" transform="scale(0.015625)"/>
      </defs>
      <use xlink:href="#DejaVuSans-59"/>
      <use xlink:href="#DejaVuSans-47" transform="translate(61.083984 0)"/>
      <use xlink:href="#DejaVuSans-4c" transform="translate(138.574219 0)"/>
      <use xlink:href="#DejaVuSans-30" transform="translate(194.287109 0)"/>
      <use xlink:href="#DejaVuSans-32" transform="translate(257.910156 0)"/>
      <use xlink:href="#DejaVuSans-35" transform="translate(321.533203 0)"/>
      <use xlink:href="#DejaVuSans-43" transform="translate(385.15625 0)"/>
     </g>
    </g>
   </g>
   <g id="text_7">
    <g clip-path="url(#pbf9c97adb2)">
     <!-- YDL005C -->
     <g transform="translate(292.11627 464.933073) scale(0.09 -0.09)">
      <defs>
       <path id="DejaVuSans-44" d="M 1259 4147 
L 1259 519 
L 2022 519 
Q 2988 519 3436 956 
Q 3884 1394 3884 2338 
Q 3884 3275 3436 3711 
Q 2988 4147 2022 4147 
L 1259 4147 
z
M 628 4666 
L 1925 4666 
Q 3281 4666 3915 4102 
Q 4550 3538 4550 2338 
Q 4550 1131 3912 565 
Q 3275 0 1925 0 
L 628 0 
L 628 4666 
z
" transform="scale(0.015625)"/>
      </defs>
      <use xlink:href="#DejaVuSans-59"/>
      <use xlink:href="#DejaVuSans-44" transform="translate(61.083984 0)"/>
      <use xlink:href="#DejaVuSans-4c" transform="translate(138.085938 0)"/>
      <use xlink:href="#DejaVuSans-30" transform="translate(193.798828 0)"/>
      <use xlink:href="#DejaVuSans-30" transform="translate(257.421875 0)"/>
      <use xlink:href="#DejaVuSans-35" transform="translate(321.044922 0)"/>
      <use xlink:href="#DejaVuSans-43" transform="translate(384.667969 0)"/>
     </g>
    </g>
   </g>
   <g id="text_8">
    <g clip-path="url(#pbf9c97adb2)">
     <!-- YHR058C -->
     <g transform="translate(235.679945 317.242086) scale(0.09 -0.09)">
      <defs>
       <path id="DejaVuSans-38" d="M 2034 2216 
Q 1584 2216 1326 1975 
Q 1069 1734 1069 1313 
Q 1069 891 1326 650 
Q 1584 409 2034 409 
Q 2484 409 2743 651 
Q 3003 894 3003 1313 
Q 3003 1734 2745 1975 
Q 2488 2216 2034 2216 
z
M 1403 2484 
Q 997 2584 770 2862 
Q 544 3141 544 3541 
Q 544 4100 942 4425 
Q 1341 4750 2034 4750 
Q 2731 4750 3128 4425 
Q 3525 4100 3525 3541 
Q 3525 3141 3298 2862 
Q 3072 2584 2669 2484 
Q 3125 2378 3379 2068 
Q 3634 1759 3634 1313 
Q 3634 634 3220 271 
Q 2806 -91 2034 -91 
Q 1263 -91 848 271 
Q 434 634 434 1313 
Q 434 1759 690 2068 
Q 947 2378 1403 2484 
z
M 1172 3481 
Q 1172 3119 1398 2916 
Q 1625 2713 2034 2713 
Q 2441 2713 2670 2916 
Q 2900 3119 2900 3481 
Q 2900 3844 2670 4047 
Q 2441 4250 2034 4250 
Q 1625 4250 1398 4047 
Q 1172 3844 1172 3481 
z
" transform="scale(0.015625)"/>
      </defs>
      <use xlink:href="#DejaVuSans-59"/>
      <use xlink:href="#DejaVuSans-48" transform="translate(61.083984 0)"/>
      <use xlink:href="#DejaVuSans-52" transform="translate(136.279297 0)"/>
      <use xlink:href="#DejaVuSans-30" transform="translate(205.761719 0)"/>
      <use xlink:href="#DejaVuSans-35" transform="translate(269.384766 0)"/>
      <use xlink:href="#DejaVuSans-38" transform="translate(333.007812 0)"/>
      <use xlink:href="#DejaVuSans-43" transform="translate(396.630859 0)"/>
     </g>
    </g>
   </g>
   <g id="text_9">
    <g clip-path="url(#pbf9c97adb2)">
     <!-- YOL051W -->
     <g transform="translate(230.732981 397.459025) scale(0.09 -0.09)">
      <use xlink:href="#DejaVuSans-59"/>
      <use xlink:href="#DejaVuSans-4f" transform="translate(55.583984 0)"/>
      <use xlink:href="#DejaVuSans-4c" transform="translate(134.294922 0)"/>
      <use xlink:href="#DejaVuSans-30" transform="translate(190.007812 0)"/>
      <use xlink:href="#DejaVuSans-35" transform="translate(253.630859 0)"/>
      <use xlink:href="#DejaVuSans-31" transform="translate(317.253906 0)"/>
      <use xlink:href="#DejaVuSans-57" transform="translate(380.876953 0)"/>
     </g>
    </g>
   </g>
   <g id="text_10">
    <g clip-path="url(#pbf9c97adb2)">
     <!-- YNR010W -->
     <g transform="translate(388.061407 281.334889) scale(0.09 -0.09)">
      <use xlink:href="#DejaVuSans-59"/>
      <use xlink:href="#DejaVuSans-4e" transform="translate(61.083984 0)"/>
      <use xlink:href="#DejaVuSans-52" transform="translate(135.888672 0)"/>
      <use xlink:href="#DejaVuSans-30" transform="translate(205.371094 0)"/>
      <use xlink:href="#DejaVuSans-31" transform="translate(268.994141 0)"/>
      <use xlink:href="#DejaVuSans-30" transform="translate(332.617188 0)"/>
      <use xlink:href="#DejaVuSans-57" transform="translate(396.240234 0)"/>
     </g>
    </g>
   </g>
   <g id="text_11">
    <g clip-path="url(#pbf9c97adb2)">
     <!-- YOL135C -->
     <g transform="translate(474.658346 232.018405) scale(0.09 -0.09)">
      <use xlink:href="#DejaVuSans-59"/>
      <use xlink:href="#DejaVuSans-4f" transform="translate(55.583984 0)"/>
      <use xlink:href="#DejaVuSans-4c" transform="translate(134.294922 0)"/>
      <use xlink:href="#DejaVuSans-31" transform="translate(190.007812 0)"/>
      <use xlink:href="#DejaVuSans-33" transform="translate(253.630859 0)"/>
      <use xlink:href="#DejaVuSans-35" transform="translate(317.253906 0)"/>
      <use xlink:href="#DejaVuSans-43" transform="translate(380.876953 0)"/>
     </g>
    </g>
   </g>
   <g id="text_12">
    <g clip-path="url(#pbf9c97adb2)">
     <!-- YDR308C -->
     <g transform="translate(427.579884 172.28197) scale(0.09 -0.09)">
      <use xlink:href="#DejaVuSans-59"/>
      <use xlink:href="#DejaVuSans-44" transform="translate(61.083984 0)"/>
      <use xlink:href="#DejaVuSans-52" transform="translate(138.085938 0)"/>
      <use xlink:href="#DejaVuSans-33" transform="translate(207.568359 0)"/>
      <use xlink:href="#DejaVuSans-30" transform="translate(271.191406 0)"/>
      <use xlink:href="#DejaVuSans-38" transform="translate(334.814453 0)"/>
      <use xlink:href="#DejaVuSans-43" transform="translate(398.4375 0)"/>
     </g>
    </g>
   </g>
   <g id="text_13">
    <g clip-path="url(#pbf9c97adb2)">
     <!-- YGL127C -->
     <g transform="translate(388.219337 528.499966) scale(0.09 -0.09)">
      <use xlink:href="#DejaVuSans-59"/>
      <use xlink:href="#DejaVuSans-47" transform="translate(61.083984 0)"/>
      <use xlink:href="#DejaVuSans-4c" transform="translate(138.574219 0)"/>
      <use xlink:href="#DejaVuSans-31" transform="translate(194.287109 0)"/>
      <use xlink:href="#DejaVuSans-32" transform="translate(257.910156 0)"/>
      <use xlink:href="#DejaVuSans-37" transform="translate(321.533203 0)"/>
      <use xlink:href="#DejaVuSans-43" transform="translate(385.15625 0)"/>
     </g>
    </g>
   </g>
   <g id="text_14">
    <g clip-path="url(#pbf9c97adb2)">
     <!-- YBL093C -->
     <g transform="translate(587.461047 158.01717) scale(0.09 -0.09)">
      <use xlink:href="#DejaVuSans-59"/>
      <use xlink:href="#DejaVuSans-42" transform="translate(61.083984 0)"/>
      <use xlink:href="#DejaVuSans-4c" transform="translate(129.6875 0)"/>
      <use xlink:href="#DejaVuSans-30" transform="translate(185.400391 0)"/>
      <use xlink:href="#DejaVuSans-39" transform="translate(249.023438 0)"/>
      <use xlink:href="#DejaVuSans-33" transform="translate(312.646484 0)"/>
      <use xlink:href="#DejaVuSans-43" transform="translate(376.269531 0)"/>
     </g>
    </g>
   </g>
   <g id="text_15">
    <g clip-path="url(#pbf9c97adb2)">
     <!-- YPR070W -->
     <g transform="translate(346.702358 331.956997) scale(0.09 -0.09)">
      <defs>
       <path id="DejaVuSans-50" d="M 1259 4147 
L 1259 2394 
L 2053 2394 
Q 2494 2394 2734 2622 
Q 2975 2850 2975 3272 
Q 2975 3691 2734 3919 
Q 2494 4147 2053 4147 
L 1259 4147 
z
M 628 4666 
L 2053 4666 
Q 2838 4666 3239 4311 
Q 3641 3956 3641 3272 
Q 3641 2581 3239 2228 
Q 2838 1875 2053 1875 
L 1259 1875 
L 1259 0 
L 628 0 
L 628 4666 
z
" transform="scale(0.015625)"/>
      </defs>
      <use xlink:href="#DejaVuSans-59"/>
      <use xlink:href="#DejaVuSans-50" transform="translate(61.083984 0)"/>
      <use xlink:href="#DejaVuSans-52" transform="translate(121.386719 0)"/>
      <use xlink:href="#DejaVuSans-30" transform="translate(190.869141 0)"/>
      <use xlink:href="#DejaVuSans-37" transform="translate(254.492188 0)"/>
      <use xlink:href="#DejaVuSans-30" transform="translate(318.115234 0)"/>
      <use xlink:href="#DejaVuSans-57" transform="translate(381.738281 0)"/>
     </g>
    </g>
   </g>
   <g id="text_16">
    <g clip-path="url(#pbf9c97adb2)">
     <!-- YER022W -->
     <g transform="translate(267.756923 139.50453) scale(0.09 -0.09)">
      <defs>
       <path id="DejaVuSans-45" d="M 628 4666 
L 3578 4666 
L 3578 4134 
L 1259 4134 
L 1259 2753 
L 3481 2753 
L 3481 2222 
L 1259 2222 
L 1259 531 
L 3634 531 
L 3634 0 
L 628 0 
L 628 4666 
z
" transform="scale(0.015625)"/>
      </defs>
      <use xlink:href="#DejaVuSans-59"/>
      <use xlink:href="#DejaVuSans-45" transform="translate(61.083984 0)"/>
      <use xlink:href="#DejaVuSans-52" transform="translate(124.267578 0)"/>
      <use xlink:href="#DejaVuSans-30" transform="translate(193.75 0)"/>
      <use xlink:href="#DejaVuSans-32" transform="translate(257.373047 0)"/>
      <use xlink:href="#DejaVuSans-32" transform="translate(320.996094 0)"/>
      <use xlink:href="#DejaVuSans-57" transform="translate(384.619141 0)"/>
     </g>
    </g>
   </g>
   <g id="text_17">
    <g clip-path="url(#pbf9c97adb2)">
     <!-- YPR168W -->
     <g transform="translate(224.451015 200.261032) scale(0.09 -0.09)">
      <use xlink:href="#DejaVuSans-59"/>
      <use xlink:href="#DejaVuSans-50" transform="translate(61.083984 0)"/>
      <use xlink:href="#DejaVuSans-52" transform="translate(121.386719 0)"/>
      <use xlink:href="#DejaVuSans-31" transform="translate(190.869141 0)"/>
      <use xlink:href="#DejaVuSans-36" transform="translate(254.492188 0)"/>
      <use xlink:href="#DejaVuSans-38" transform="translate(318.115234 0)"/>
      <use xlink:href="#DejaVuSans-57" transform="translate(381.738281 0)"/>
     </g>
    </g>
   </g>
   <g id="text_18">
    <g clip-path="url(#pbf9c97adb2)">
     <!-- YCR081W -->
     <g transform="translate(635.711833 52.466909) scale(0.09 -0.09)">
      <use xlink:href="#DejaVuSans-59"/>
      <use xlink:href="#DejaVuSans-43" transform="translate(55.583984 0)"/>
      <use xlink:href="#DejaVuSans-52" transform="translate(125.408203 0)"/>
      <use xlink:href="#DejaVuSans-30" transform="translate(194.890625 0)"/>
      <use xlink:href="#DejaVuSans-38" transform="translate(258.513672 0)"/>
      <use xlink:href="#DejaVuSans-31" transform="translate(322.136719 0)"/>
      <use xlink:href="#DejaVuSans-57" transform="translate(385.759766 0)"/>
     </g>
    </g>
   </g>
   <g id="text_19">
    <g clip-path="url(#pbf9c97adb2)">
     <!-- YGR104C -->
     <g transform="translate(70.048802 144.090924) scale(0.09 -0.09)">
      <use xlink:href="#DejaVuSans-59"/>
      <use xlink:href="#DejaVuSans-47" transform="translate(61.083984 0)"/>
      <use xlink:href="#DejaVuSans-52" transform="translate(138.574219 0)"/>
      <use xlink:href="#DejaVuSans-31" transform="translate(208.056641 0)"/>
      <use xlink:href="#DejaVuSans-30" transform="translate(271.679688 0)"/>
      <use xlink:href="#DejaVuSans-34" transform="translate(335.302734 0)"/>
      <use xlink:href="#DejaVuSans-43" transform="translate(398.925781 0)"/>
     </g>
    </g>
   </g>
   <g id="text_20">
    <g clip-path="url(#pbf9c97adb2)">
     <!-- YMR112C -->
     <g transform="translate(40.989729 248.107636) scale(0.09 -0.09)">
      <defs>
       <path id="DejaVuSans-4d" d="M 628 4666 
L 1569 4666 
L 2759 1491 
L 3956 4666 
L 4897 4666 
L 4897 0 
L 4281 0 
L 4281 4097 
L 3078 897 
L 2444 897 
L 1241 4097 
L 1241 0 
L 628 0 
L 628 4666 
z
" transform="scale(0.015625)"/>
      </defs>
      <use xlink:href="#DejaVuSans-59"/>
      <use xlink:href="#DejaVuSans-4d" transform="translate(61.083984 0)"/>
      <use xlink:href="#DejaVuSans-52" transform="translate(147.363281 0)"/>
      <use xlink:href="#DejaVuSans-31" transform="translate(216.845703 0)"/>
      <use xlink:href="#DejaVuSans-31" transform="translate(280.46875 0)"/>
      <use xlink:href="#DejaVuSans-32" transform="translate(344.091797 0)"/>
      <use xlink:href="#DejaVuSans-43" transform="translate(407.714844 0)"/>
     </g>
    </g>
   </g>
   <g id="text_21">
    <g clip-path="url(#pbf9c97adb2)">
     <!-- YPL042C -->
     <g transform="translate(628.030147 272.280065) scale(0.09 -0.09)">
      <use xlink:href="#DejaVuSans-59"/>
      <use xlink:href="#DejaVuSans-50" transform="translate(61.083984 0)"/>
      <use xlink:href="#DejaVuSans-4c" transform="translate(121.386719 0)"/>
      <use xlink:href="#DejaVuSans-30" transform="translate(177.099609 0)"/>
      <use xlink:href="#DejaVuSans-34" transform="translate(240.722656 0)"/>
      <use xlink:href="#DejaVuSans-32" transform="translate(304.345703 0)"/>
      <use xlink:href="#DejaVuSans-43" transform="translate(367.96875 0)"/>
     </g>
    </g>
   </g>
   <g id="text_22">
    <g clip-path="url(#pbf9c97adb2)">
     <!-- YGL151W -->
     <g transform="translate(352.988478 77.229398) scale(0.09 -0.09)">
      <use xlink:href="#DejaVuSans-59"/>
      <use xlink:href="#DejaVuSans-47" transform="translate(61.083984 0)"/>
      <use xlink:href="#DejaVuSans-4c" transform="translate(138.574219 0)"/>
      <use xlink:href="#DejaVuSans-31" transform="translate(194.287109 0)"/>
      <use xlink:href="#DejaVuSans-35" transform="translate(257.910156 0)"/>
      <use xlink:href="#DejaVuSans-31" transform="translate(321.533203 0)"/>
      <use xlink:href="#DejaVuSans-57" transform="translate(385.15625 0)"/>
     </g>
    </g>
   </g>
   <g id="text_23">
    <g clip-path="url(#pbf9c97adb2)">
     <!-- YLR071C -->
     <g transform="translate(263.558028 68.366976) scale(0.09 -0.09)">
      <use xlink:href="#DejaVuSans-59"/>
      <use xlink:href="#DejaVuSans-4c" transform="translate(61.083984 0)"/>
      <use xlink:href="#DejaVuSans-52" transform="translate(116.796875 0)"/>
      <use xlink:href="#DejaVuSans-30" transform="translate(186.279297 0)"/>
      <use xlink:href="#DejaVuSans-37" transform="translate(249.902344 0)"/>
      <use xlink:href="#DejaVuSans-31" transform="translate(313.525391 0)"/>
      <use xlink:href="#DejaVuSans-43" transform="translate(377.148438 0)"/>
     </g>
    </g>
   </g>
   <g id="text_24">
    <!-- Protein Interaction Cluster: YNR010W (Size: 23) -->
    <g transform="translate(217.310625 -6) scale(0.12 -0.12)">
     <defs>
      <path id="DejaVuSans-72" d="M 2631 2963 
Q 2534 3019 2420 3045 
Q 2306 3072 2169 3072 
Q 1681 3072 1420 2755 
Q 1159 2438 1159 1844 
L 1159 0 
L 581 0 
L 581 3500 
L 1159 3500 
L 1159 2956 
Q 1341 3275 1631 3429 
Q 1922 3584 2338 3584 
Q 2397 3584 2469 3576 
Q 2541 3569 2628 3553 
L 2631 2963 
z
" transform="scale(0.015625)"/>
      <path id="DejaVuSans-6f" d="M 1959 3097 
Q 1497 3097 1228 2736 
Q 959 2375 959 1747 
Q 959 1119 1226 758 
Q 1494 397 1959 397 
Q 2419 397 2687 759 
Q 2956 1122 2956 1747 
Q 2956 2369 2687 2733 
Q 2419 3097 1959 3097 
z
M 1959 3584 
Q 2709 3584 3137 3096 
Q 3566 2609 3566 1747 
Q 3566 888 3137 398 
Q 2709 -91 1959 -91 
Q 1206 -91 779 398 
Q 353 888 353 1747 
Q 353 2609 779 3096 
Q 1206 3584 1959 3584 
z
" transform="scale(0.015625)"/>
      <path id="DejaVuSans-74" d="M 1172 4494 
L 1172 3500 
L 2356 3500 
L 2356 3053 
L 1172 3053 
L 1172 1153 
Q 1172 725 1289 603 
Q 1406 481 1766 481 
L 2356 481 
L 2356 0 
L 1766 0 
Q 1100 0 847 248 
Q 594 497 594 1153 
L 594 3053 
L 172 3053 
L 172 3500 
L 594 3500 
L 594 4494 
L 1172 4494 
z
" transform="scale(0.015625)"/>
      <path id="DejaVuSans-65" d="M 3597 1894 
L 3597 1613 
L 953 1613 
Q 991 1019 1311 708 
Q 1631 397 2203 397 
Q 2534 397 2845 478 
Q 3156 559 3463 722 
L 3463 178 
Q 3153 47 2828 -22 
Q 2503 -91 2169 -91 
Q 1331 -91 842 396 
Q 353 884 353 1716 
Q 353 2575 817 3079 
Q 1281 3584 2069 3584 
Q 2775 3584 3186 3129 
Q 3597 2675 3597 1894 
z
M 3022 2063 
Q 3016 2534 2758 2815 
Q 2500 3097 2075 3097 
Q 1594 3097 1305 2825 
Q 1016 2553 972 2059 
L 3022 2063 
z
" transform="scale(0.015625)"/>
      <path id="DejaVuSans-69" d="M 603 3500 
L 1178 3500 
L 1178 0 
L 603 0 
L 603 3500 
z
M 603 4863 
L 1178 4863 
L 1178 4134 
L 603 4134 
L 603 4863 
z
" transform="scale(0.015625)"/>
      <path id="DejaVuSans-6e" d="M 3513 2113 
L 3513 0 
L 2938 0 
L 2938 2094 
Q 2938 2591 2744 2837 
Q 2550 3084 2163 3084 
Q 1697 3084 1428 2787 
Q 1159 2491 1159 1978 
L 1159 0 
L 581 0 
L 581 3500 
L 1159 3500 
L 1159 2956 
Q 1366 3272 1645 3428 
Q 1925 3584 2291 3584 
Q 2894 3584 3203 3211 
Q 3513 2838 3513 2113 
z
" transform="scale(0.015625)"/>
      <path id="DejaVuSans-20" transform="scale(0.015625)"/>
      <path id="DejaVuSans-49" d="M 628 4666 
L 1259 4666 
L 1259 0 
L 628 0 
L 628 4666 
z
" transform="scale(0.015625)"/>
      <path id="DejaVuSans-61" d="M 2194 1759 
Q 1497 1759 1228 1600 
Q 959 1441 959 1056 
Q 959 750 1161 570 
Q 1363 391 1709 391 
Q 2188 391 2477 730 
Q 2766 1069 2766 1631 
L 2766 1759 
L 2194 1759 
z
M 3341 1997 
L 3341 0 
L 2766 0 
L 2766 531 
Q 2569 213 2275 61 
Q 1981 -91 1556 -91 
Q 1019 -91 701 211 
Q 384 513 384 1019 
Q 384 1609 779 1909 
Q 1175 2209 1959 2209 
L 2766 2209 
L 2766 2266 
Q 2766 2663 2505 2880 
Q 2244 3097 1772 3097 
Q 1472 3097 1187 3025 
Q 903 2953 641 2809 
L 641 3341 
Q 956 3463 1253 3523 
Q 1550 3584 1831 3584 
Q 2591 3584 2966 3190 
Q 3341 2797 3341 1997 
z
" transform="scale(0.015625)"/>
      <path id="DejaVuSans-63" d="M 3122 3366 
L 3122 2828 
Q 2878 2963 2633 3030 
Q 2388 3097 2138 3097 
Q 1578 3097 1268 2742 
Q 959 2388 959 1747 
Q 959 1106 1268 751 
Q 1578 397 2138 397 
Q 2388 397 2633 464 
Q 2878 531 3122 666 
L 3122 134 
Q 2881 22 2623 -34 
Q 2366 -91 2075 -91 
Q 1284 -91 818 406 
Q 353 903 353 1747 
Q 353 2603 823 3093 
Q 1294 3584 2113 3584 
Q 2378 3584 2631 3529 
Q 2884 3475 3122 3366 
z
" transform="scale(0.015625)"/>
      <path id="DejaVuSans-6c" d="M 603 4863 
L 1178 4863 
L 1178 0 
L 603 0 
L 603 4863 
z
" transform="scale(0.015625)"/>
      <path id="DejaVuSans-75" d="M 544 1381 
L 544 3500 
L 1119 3500 
L 1119 1403 
Q 1119 906 1312 657 
Q 1506 409 1894 409 
Q 2359 409 2629 706 
Q 2900 1003 2900 1516 
L 2900 3500 
L 3475 3500 
L 3475 0 
L 2900 0 
L 2900 538 
Q 2691 219 2414 64 
Q 2138 -91 1772 -91 
Q 1169 -91 856 284 
Q 544 659 544 1381 
z
M 1991 3584 
L 1991 3584 
z
" transform="scale(0.015625)"/>
      <path id="DejaVuSans-73" d="M 2834 3397 
L 2834 2853 
Q 2591 2978 2328 3040 
Q 2066 3103 1784 3103 
Q 1356 3103 1142 2972 
Q 928 2841 928 2578 
Q 928 2378 1081 2264 
Q 1234 2150 1697 2047 
L 1894 2003 
Q 2506 1872 2764 1633 
Q 3022 1394 3022 966 
Q 3022 478 2636 193 
Q 2250 -91 1575 -91 
Q 1294 -91 989 -36 
Q 684 19 347 128 
L 347 722 
Q 666 556 975 473 
Q 1284 391 1588 391 
Q 1994 391 2212 530 
Q 2431 669 2431 922 
Q 2431 1156 2273 1281 
Q 2116 1406 1581 1522 
L 1381 1569 
Q 847 1681 609 1914 
Q 372 2147 372 2553 
Q 372 3047 722 3315 
Q 1072 3584 1716 3584 
Q 2034 3584 2315 3537 
Q 2597 3491 2834 3397 
z
" transform="scale(0.015625)"/>
      <path id="DejaVuSans-3a" d="M 750 794 
L 1409 794 
L 1409 0 
L 750 0 
L 750 794 
z
M 750 3309 
L 1409 3309 
L 1409 2516 
L 750 2516 
L 750 3309 
z
" transform="scale(0.015625)"/>
      <path id="DejaVuSans-28" d="M 1984 4856 
Q 1566 4138 1362 3434 
Q 1159 2731 1159 2009 
Q 1159 1288 1364 580 
Q 1569 -128 1984 -844 
L 1484 -844 
Q 1016 -109 783 600 
Q 550 1309 550 2009 
Q 550 2706 781 3412 
Q 1013 4119 1484 4856 
L 1984 4856 
z
" transform="scale(0.015625)"/>
      <path id="DejaVuSans-53" d="M 3425 4513 
L 3425 3897 
Q 3066 4069 2747 4153 
Q 2428 4238 2131 4238 
Q 1616 4238 1336 4038 
Q 1056 3838 1056 3469 
Q 1056 3159 1242 3001 
Q 1428 2844 1947 2747 
L 2328 2669 
Q 3034 2534 3370 2195 
Q 3706 1856 3706 1288 
Q 3706 609 3251 259 
Q 2797 -91 1919 -91 
Q 1588 -91 1214 -16 
Q 841 59 441 206 
L 441 856 
Q 825 641 1194 531 
Q 1563 422 1919 422 
Q 2459 422 2753 634 
Q 3047 847 3047 1241 
Q 3047 1584 2836 1778 
Q 2625 1972 2144 2069 
L 1759 2144 
Q 1053 2284 737 2584 
Q 422 2884 422 3419 
Q 422 4038 858 4394 
Q 1294 4750 2059 4750 
Q 2388 4750 2728 4690 
Q 3069 4631 3425 4513 
z
" transform="scale(0.015625)"/>
      <path id="DejaVuSans-7a" d="M 353 3500 
L 3084 3500 
L 3084 2975 
L 922 459 
L 3084 459 
L 3084 0 
L 275 0 
L 275 525 
L 2438 3041 
L 353 3041 
L 353 3500 
z
" transform="scale(0.015625)"/>
      <path id="DejaVuSans-29" d="M 513 4856 
L 1013 4856 
Q 1481 4119 1714 3412 
Q 1947 2706 1947 2009 
Q 1947 1309 1714 600 
Q 1481 -109 1013 -844 
L 513 -844 
Q 928 -128 1133 580 
Q 1338 1288 1338 2009 
Q 1338 2731 1133 3434 
Q 928 4138 513 4856 
z
" transform="scale(0.015625)"/>
     </defs>
     <use xlink:href="#DejaVuSans-50"/>
     <use xlink:href="#DejaVuSans-72" transform="translate(58.552734 0)"/>
     <use xlink:href="#DejaVuSans-6f" transform="translate(97.416016 0)"/>
     <use xlink:href="#DejaVuSans-74" transform="translate(158.597656 0)"/>
     <use xlink:href="#DejaVuSans-65" transform="translate(197.806641 0)"/>
     <use xlink:href="#DejaVuSans-69" transform="translate(259.330078 0)"/>
     <use xlink:href="#DejaVuSans-6e" transform="translate(287.113281 0)"/>
     <use xlink:href="#DejaVuSans-20" transform="translate(350.492188 0)"/>
     <use xlink:href="#DejaVuSans-49" transform="translate(382.279297 0)"/>
     <use xlink:href="#DejaVuSans-6e" transform="translate(411.771484 0)"/>
     <use xlink:href="#DejaVuSans-74" transform="translate(475.150391 0)"/>
     <use xlink:href="#DejaVuSans-65" transform="translate(514.359375 0)"/>
     <use xlink:href="#DejaVuSans-72" transform="translate(575.882812 0)"/>
     <use xlink:href="#DejaVuSans-61" transform="translate(616.996094 0)"/>
     <use xlink:href="#DejaVuSans-63" transform="translate(678.275391 0)"/>
     <use xlink:href="#DejaVuSans-74" transform="translate(733.255859 0)"/>
     <use xlink:href="#DejaVuSans-69" transform="translate(772.464844 0)"/>
     <use xlink:href="#DejaVuSans-6f" transform="translate(800.248047 0)"/>
     <use xlink:href="#DejaVuSans-6e" transform="translate(861.429688 0)"/>
     <use xlink:href="#DejaVuSans-20" transform="translate(924.808594 0)"/>
     <use xlink:href="#DejaVuSans-43" transform="translate(956.595703 0)"/>
     <use xlink:href="#DejaVuSans-6c" transform="translate(1026.419922 0)"/>
     <use xlink:href="#DejaVuSans-75" transform="translate(1054.203125 0)"/>
     <use xlink:href="#DejaVuSans-73" transform="translate(1117.582031 0)"/>
     <use xlink:href="#DejaVuSans-74" transform="translate(1169.681641 0)"/>
     <use xlink:href="#DejaVuSans-65" transform="translate(1208.890625 0)"/>
     <use xlink:href="#DejaVuSans-72" transform="translate(1270.414062 0)"/>
     <use xlink:href="#DejaVuSans-3a" transform="translate(1309.777344 0)"/>
     <use xlink:href="#DejaVuSans-20" transform="translate(1343.46875 0)"/>
     <use xlink:href="#DejaVuSans-59" transform="translate(1375.255859 0)"/>
     <use xlink:href="#DejaVuSans-4e" transform="translate(1436.339844 0)"/>
     <use xlink:href="#DejaVuSans-52" transform="translate(1511.144531 0)"/>
     <use xlink:href="#DejaVuSans-30" transform="translate(1580.626953 0)"/>
     <use xlink:href="#DejaVuSans-31" transform="translate(1644.25 0)"/>
     <use xlink:href="#DejaVuSans-30" transform="translate(1707.873047 0)"/>
     <use xlink:href="#DejaVuSans-57" transform="translate(1771.496094 0)"/>
     <use xlink:href="#DejaVuSans-20" transform="translate(1870.373047 0)"/>
     <use xlink:href="#DejaVuSans-28" transform="translate(1902.160156 0)"/>
     <use xlink:href="#DejaVuSans-53" transform="translate(1941.173828 0)"/>
     <use xlink:href="#DejaVuSans-69" transform="translate(2004.650391 0)"/>
     <use xlink:href="#DejaVuSans-7a" transform="translate(2032.433594 0)"/>
     <use xlink:href="#DejaVuSans-65" transform="translate(2084.923828 0)"/>
     <use xlink:href="#DejaVuSans-3a" transform="translate(2146.447266 0)"/>
     <use xlink:href="#DejaVuSans-20" transform="translate(2180.138672 0)"/>
     <use xlink:href="#DejaVuSans-32" transform="translate(2211.925781 0)"/>
     <use xlink:href="#DejaVuSans-33" transform="translate(2275.548828 0)"/>
     <use xlink:href="#DejaVuSans-29" transform="translate(2339.171875 0)"/>
    </g>
   </g>
  </g>
 </g>
 <defs>
  <clipPath id="pbf9c97adb2">
   <rect x="0" y="0" width="720" height="576"/>
  </clipPath>
 </defs>
</svg>
